<?xml version="1.0" encoding="UTF-8" standalone="no"?>
<svg width="255" height="32" viewBox="0 0 255 32" fill="black" version="1.1" id="svg76" xmlns="http://www.w3.org/2000/svg" xmlns:svg="http://www.w3.org/2000/svg">
    <path d="M 88.902344 0.95117188 L 83.976562 15.751953 C 81.266965 23.892645 78.997994 30.696494 78.933594 30.871094 C 78.843994 31.113794 79.533855 31.189453 81.876953 31.189453 L 84.941406 31.189453 L 85.851562 28.332031 C 89.728959 16.191643 93.220094 5.8151627 93.371094 5.9765625 C 93.470594 6.0830624 95.379783 11.769941 97.613281 18.615234 L 101.67383 31.0625 L 104.62305 31.132812 C 106.89604 31.188012 107.56673 31.130006 107.55273 30.878906 C 107.54273 30.699806 105.28611 23.924858 102.53711 15.822266 L 97.539062 1.0898438 L 93.220703 1.0214844 L 88.902344 0.95117188 z M 0.3828125 0.96289062 L 0.3828125 16.095703 L 0.3828125 31.226562 L 9.84375 31.128906 C 17.904392 31.044606 19.503107 30.965803 20.628906 30.595703 C 22.229605 30.069404 23.354519 29.163399 24.011719 27.875 C 25.123918 25.694902 25.260637 20.822832 24.273438 18.615234 C 23.685938 17.301536 22.84633 16.545503 21.332031 15.970703 L 20.111328 15.507812 L 21.025391 15.205078 C 23.368088 14.431879 24.445434 11.868141 24.177734 7.703125 C 23.910635 3.5493892 22.473118 1.8171531 18.794922 1.2148438 C 17.958823 1.0780439 13.47311 0.96574375 8.828125 0.96484375 L 0.3828125 0.96289062 z M 40.896484 0.96289062 L 40.896484 16.076172 L 40.896484 31.189453 L 43.685547 31.189453 L 46.472656 31.189453 L 46.542969 26.171875 L 46.611328 21.15625 L 51.564453 21.15625 C 56.971648 21.15625 57.517745 21.272167 58.527344 22.634766 C 59.001243 23.274365 59.065478 23.770935 59.142578 27.269531 L 59.230469 31.189453 L 62.126953 31.189453 L 65.027344 31.189453 L 65.025391 27.1875 C 65.023891 23.004104 64.805359 21.640433 63.943359 20.427734 C 63.35066 19.593935 61.70043 18.763328 60.582031 18.736328 C 59.953832 18.721328 60.100023 18.611493 61.419922 18.121094 C 64.439419 16.999595 65.072269 15.83597 65.230469 11.109375 C 65.406169 5.8580703 64.526829 3.3955587 62.019531 2.125 C 60.072833 1.138571 58.163535 0.96691375 49.214844 0.96484375 L 40.896484 0.96289062 z M 121.92383 0.96289062 L 121.92383 16.076172 L 121.92383 31.189453 L 124.84375 31.189453 L 127.76367 31.189453 L 127.76367 16.076172 L 127.76367 0.96289062 L 124.84375 0.96289062 L 121.92383 0.96289062 z M 144.65625 0.96289062 L 144.65625 16.076172 L 144.65625 31.189453 L 147.61328 31.189453 L 150.57227 31.189453 L 150.43945 18.597656 C 150.36745 11.672463 150.38742 6.0999439 150.48242 6.2148438 C 150.57742 6.3297436 151.47928 8.2530535 152.48828 10.488281 C 153.49728 12.723479 156.25519 18.266345 158.61719 22.806641 L 162.91211 31.0625 L 167.75391 31.130859 L 172.5957 31.199219 L 172.5957 16.082031 L 172.5957 0.96289062 L 169.79688 0.96289062 L 166.99609 0.96289062 L 167.06641 13.523438 C 167.10341 20.431631 167.0597 26.00405 166.9707 25.90625 C 166.8797 25.80845 165.78978 23.613794 164.55078 21.029297 C 163.31078 18.444899 160.52814 12.87238 158.36914 8.6464844 L 154.44531 0.96289062 L 149.55078 0.96289062 L 144.65625 0.96289062 z M 210.94922 0.96289062 L 210.94922 16.076172 L 210.94922 31.189453 L 213.74219 31.189453 L 216.53711 31.189453 L 216.53711 16.076172 L 216.53711 0.96289062 L 213.74219 0.96289062 L 210.94922 0.96289062 z M 231.14258 0.96289062 L 231.14258 3.5019531 L 231.14258 6.0429688 L 235.58789 6.0429688 L 240.0332 6.0429688 L 240.0332 18.615234 L 240.0332 31.189453 L 242.82617 31.189453 L 245.61914 31.189453 L 245.61914 18.615234 L 245.61914 6.0429688 L 250.06445 6.0429688 L 254.50977 6.0429688 L 254.50977 3.5019531 L 254.50977 0.96289062 L 242.82617 0.96289062 L 231.14258 0.96289062 z M 6.2265625 5.7890625 L 10.988281 5.7910156 C 13.607579 5.7916156 16.179526 5.9111408 16.703125 6.0566406 C 17.973524 6.4094403 18.418469 7.3067366 18.417969 9.5214844 C 18.417369 11.943502 17.886964 12.935672 16.384766 13.326172 C 15.738766 13.493872 13.282772 13.628625 10.734375 13.640625 L 6.2265625 13.662109 L 6.2265625 9.7246094 L 6.2265625 5.7890625 z M 46.484375 6.0429688 L 51.753906 6.0429688 C 56.269102 6.0433287 57.150838 6.1078516 57.898438 6.4882812 C 59.005836 7.0518907 59.394269 8.1070069 59.417969 10.615234 C 59.450969 14.120831 58.73246 15.476594 56.601562 15.933594 C 55.240264 16.225793 46.929897 16.308803 46.654297 16.033203 C 46.561197 15.940203 46.484375 13.653922 46.484375 10.953125 L 46.484375 6.0429688 z M 189.23047 10.107422 L 189.23047 12.773438 L 189.23047 15.441406 L 191.77148 15.441406 L 194.3125 15.441406 L 194.3125 12.773438 L 194.3125 10.107422 L 191.77148 10.107422 L 189.23047 10.107422 z M 6.2265625 17.982422 L 11.242188 18 C 17.128882 18.024 18.076401 18.212314 18.75 19.507812 C 19.1156 20.211212 19.190781 20.825255 19.113281 22.501953 C 18.990381 25.15715 18.528745 25.737928 16.248047 26.111328 L 16.248047 26.113281 C 15.415648 26.249481 12.820366 26.362381 10.480469 26.363281 L 6.2265625 26.363281 L 6.2265625 22.171875 L 6.2265625 17.982422 z M 189.23047 25.599609 L 189.23047 28.394531 L 189.23047 31.189453 L 191.77148 31.189453 L 194.3125 31.189453 L 194.3125 28.394531 L 194.3125 25.599609 L 191.77148 25.599609 L 189.23047 25.599609 z " />
</svg>